<svg width="61" height="53" viewBox="0 0 61 53" fill="none" xmlns="http://www.w3.org/2000/svg">
<path d="M4 26.5L9.91837 21.5M9.91837 21.5L30.6327 4L51.3469 21.5M9.91837 21.5V46.5C9.91837 47.8807 11.2433 49 12.8776 49H21.7551M51.3469 21.5L57.2653 26.5M51.3469 21.5V46.5C51.3469 47.8807 50.0221 49 48.3878 49H39.5102M21.7551 49C23.3894 49 24.7143 47.8807 24.7143 46.5V36.5C24.7143 35.1193 26.0391 34 27.6735 34H33.5918C35.2262 34 36.551 35.1193 36.551 36.5V46.5C36.551 47.8807 37.8758 49 39.5102 49M21.7551 49H39.5102" stroke="#FEFEFF" stroke-width="7" stroke-linecap="round" stroke-linejoin="round"/>
</svg>
